<?xml version="1.0" encoding="UTF-8"?>
<svg xmlns="http://www.w3.org/2000/svg" xmlns:xlink="http://www.w3.org/1999/xlink" width="50px" height="50px" viewBox="0 0 50 49" version="1.1">
<g id="surface1">
<path style=" stroke:none;fill-rule:evenodd;fill:rgb(14.901961%,46.666667%,68.627451%);fill-opacity:1;" d="M 23.449219 2.320312 C 22.304688 2.464844 20.585938 2.839844 20.492188 2.972656 C 20.457031 3.015625 20.324219 3.058594 20.191406 3.066406 C 20.058594 3.074219 19.867188 3.132812 19.769531 3.199219 C 19.667969 3.265625 19.5 3.292969 19.394531 3.265625 C 19.285156 3.238281 19.199219 3.265625 19.199219 3.328125 C 19.199219 3.394531 19.304688 3.421875 19.449219 3.394531 C 19.585938 3.371094 19.699219 3.398438 19.699219 3.453125 C 19.699219 3.511719 19.632812 3.53125 19.550781 3.5 C 19.46875 3.46875 19.394531 3.476562 19.390625 3.511719 C 19.332031 3.902344 19.34375 4.414062 19.414062 4.601562 C 19.488281 4.789062 19.476562 4.824219 19.347656 4.777344 C 19.222656 4.726562 19.214844 4.753906 19.300781 4.914062 C 19.359375 5.019531 19.371094 5.101562 19.328125 5.097656 C 19.132812 5.0625 19.0625 5.117188 19.195312 5.199219 C 19.320312 5.277344 19.3125 5.324219 19.144531 5.515625 C 18.949219 5.742188 18.949219 5.742188 19.148438 5.585938 C 19.261719 5.496094 19.410156 5.449219 19.488281 5.476562 C 19.5625 5.5 19.65625 5.472656 19.695312 5.410156 C 19.734375 5.347656 19.867188 5.277344 19.996094 5.253906 C 20.121094 5.230469 20.25 5.1875 20.28125 5.160156 C 20.308594 5.132812 20.402344 5.164062 20.484375 5.230469 C 20.609375 5.328125 20.625 5.328125 20.554688 5.214844 C 20.488281 5.105469 20.515625 5.085938 20.679688 5.128906 C 20.796875 5.160156 20.90625 5.136719 20.925781 5.078125 C 20.945312 5.023438 21.105469 4.976562 21.28125 4.976562 C 21.457031 4.976562 21.601562 4.9375 21.601562 4.886719 C 21.601562 4.839844 21.679688 4.808594 21.773438 4.816406 C 21.871094 4.828125 21.972656 4.824219 22 4.816406 C 22.769531 4.519531 27.808594 4.476562 28.519531 4.761719 C 28.613281 4.796875 28.738281 4.800781 28.800781 4.761719 C 28.859375 4.726562 28.972656 4.75 29.050781 4.8125 C 29.128906 4.875 29.238281 4.898438 29.300781 4.859375 C 29.359375 4.824219 29.472656 4.847656 29.550781 4.910156 C 29.628906 4.972656 29.738281 4.996094 29.796875 4.960938 C 29.851562 4.925781 29.898438 4.933594 29.898438 4.976562 C 29.898438 5.019531 30.046875 5.066406 30.222656 5.078125 C 30.402344 5.09375 30.5625 5.144531 30.582031 5.195312 C 30.597656 5.25 30.675781 5.265625 30.757812 5.238281 C 30.835938 5.207031 30.898438 5.226562 30.898438 5.28125 C 30.898438 5.335938 30.957031 5.375 31.023438 5.375 C 31.339844 5.363281 31.507812 5.40625 31.457031 5.488281 C 31.425781 5.539062 31.488281 5.554688 31.601562 5.527344 C 31.710938 5.5 31.867188 5.53125 31.949219 5.597656 C 32.03125 5.664062 32.101562 5.6875 32.101562 5.644531 C 32.101562 5.605469 32.164062 5.625 32.238281 5.6875 C 32.34375 5.773438 32.390625 5.761719 32.4375 5.644531 C 32.46875 5.558594 32.457031 5.511719 32.410156 5.542969 C 32.363281 5.570312 32.296875 5.503906 32.269531 5.390625 C 32.238281 5.277344 32.164062 5.214844 32.105469 5.25 C 32.046875 5.285156 32 5.25 32 5.171875 C 32 5.09375 32.0625 5.003906 32.144531 4.976562 C 32.3125 4.910156 32.292969 3.863281 32.121094 3.902344 C 32.058594 3.914062 32.035156 3.820312 32.058594 3.679688 C 32.089844 3.503906 32.058594 3.4375 31.945312 3.4375 C 31.859375 3.4375 31.816406 3.394531 31.851562 3.339844 C 31.886719 3.28125 31.804688 3.242188 31.660156 3.242188 C 31.523438 3.242188 31.382812 3.195312 31.351562 3.140625 C 31.316406 3.089844 31.15625 3.042969 30.992188 3.042969 C 30.832031 3.042969 30.699219 2.996094 30.699219 2.933594 C 30.699219 2.875 30.613281 2.847656 30.5 2.875 C 30.390625 2.90625 30.273438 2.886719 30.242188 2.835938 C 30.210938 2.785156 30.148438 2.769531 30.101562 2.796875 C 30.050781 2.828125 29.984375 2.804688 29.945312 2.746094 C 29.910156 2.6875 29.8125 2.664062 29.726562 2.695312 C 29.644531 2.726562 29.523438 2.714844 29.460938 2.664062 C 29.203125 2.464844 27.917969 2.335938 25.898438 2.3125 C 24.71875 2.296875 23.613281 2.300781 23.449219 2.320312 M 18.734375 3.585938 C 18.734375 3.664062 18.757812 3.710938 18.785156 3.683594 C 18.8125 3.65625 18.910156 3.699219 19.003906 3.785156 C 19.160156 3.921875 19.171875 3.914062 19.148438 3.710938 C 19.113281 3.382812 19.105469 3.375 19 3.535156 C 18.933594 3.632812 18.902344 3.640625 18.902344 3.558594 C 18.902344 3.492188 18.863281 3.4375 18.816406 3.4375 C 18.769531 3.4375 18.734375 3.503906 18.734375 3.585938 M 32.21875 3.5625 C 32.136719 3.660156 32.164062 3.722656 32.332031 3.820312 C 32.484375 3.910156 32.515625 3.914062 32.433594 3.828125 C 32.367188 3.761719 32.339844 3.648438 32.367188 3.570312 C 32.433594 3.402344 32.359375 3.398438 32.21875 3.5625 M 39.761719 14.609375 C 39.730469 14.660156 39.722656 14.792969 39.746094 14.90625 C 39.773438 15.050781 39.746094 15.09375 39.644531 15.058594 C 39.558594 15.023438 39.5 15.0625 39.5 15.152344 C 39.5 15.238281 39.433594 15.367188 39.355469 15.449219 C 39.214844 15.585938 38.902344 16.082031 38.378906 16.992188 C 37.886719 17.855469 37.714844 18.148438 36.941406 19.449219 C 36.511719 20.175781 36.027344 21.011719 35.863281 21.308594 C 35.484375 22 35.507812 21.980469 35.339844 21.75 C 35.261719 21.640625 35.128906 21.476562 35.050781 21.382812 C 34.96875 21.289062 34.925781 21.210938 34.953125 21.210938 C 34.980469 21.210938 34.933594 21.078125 34.851562 20.914062 C 34.765625 20.753906 34.648438 20.621094 34.589844 20.621094 C 34.535156 20.621094 34.515625 20.582031 34.546875 20.53125 C 34.578125 20.480469 34.53125 20.371094 34.449219 20.289062 C 34.363281 20.207031 34.304688 20.121094 34.320312 20.097656 C 34.335938 20.074219 34.25 19.929688 34.128906 19.773438 C 34.007812 19.621094 33.910156 19.453125 33.914062 19.40625 C 33.914062 19.355469 33.871094 19.289062 33.816406 19.257812 C 33.761719 19.222656 33.703125 19.132812 33.683594 19.058594 C 33.664062 18.984375 33.546875 18.8125 33.421875 18.675781 C 33.296875 18.539062 33.214844 18.367188 33.242188 18.296875 C 33.269531 18.226562 33.199219 18.121094 33.089844 18.0625 C 32.972656 18 32.90625 17.894531 32.9375 17.816406 C 32.96875 17.738281 32.949219 17.675781 32.890625 17.675781 C 32.835938 17.675781 32.820312 17.625 32.859375 17.5625 C 32.902344 17.492188 32.886719 17.476562 32.820312 17.515625 C 32.691406 17.59375 32.460938 17.226562 32.554688 17.082031 C 32.585938 17.027344 32.578125 16.988281 32.53125 16.996094 C 32.3125 17.035156 32.207031 16.964844 32.109375 16.71875 L 32.003906 16.449219 L 32.023438 16.742188 C 32.035156 16.90625 32.082031 17.089844 32.132812 17.160156 C 32.183594 17.226562 32.1875 17.359375 32.148438 17.453125 C 32.035156 17.710938 32.019531 17.992188 32.097656 18.214844 C 32.136719 18.324219 32.128906 18.742188 32.082031 19.148438 C 32.035156 19.554688 31.992188 19.949219 31.984375 20.03125 C 31.976562 20.113281 31.921875 20.242188 31.863281 20.320312 C 31.773438 20.429688 31.78125 20.445312 31.882812 20.382812 C 31.96875 20.332031 32.03125 20.375 32.066406 20.511719 C 32.101562 20.632812 32.171875 20.6875 32.238281 20.652344 C 32.300781 20.613281 32.289062 20.660156 32.210938 20.75 C 32.125 20.859375 32.113281 20.914062 32.1875 20.914062 C 32.25 20.914062 32.300781 20.980469 32.300781 21.0625 C 32.300781 21.144531 32.34375 21.210938 32.398438 21.210938 C 32.453125 21.210938 32.496094 21.242188 32.488281 21.285156 C 32.457031 21.476562 32.507812 21.609375 32.59375 21.558594 C 32.644531 21.527344 32.683594 21.578125 32.675781 21.675781 C 32.671875 21.769531 32.886719 22.203125 33.15625 22.632812 C 33.425781 23.066406 34.011719 24.0625 34.460938 24.84375 C 34.90625 25.625 35.339844 26.28125 35.425781 26.296875 C 35.515625 26.316406 35.601562 26.226562 35.640625 26.070312 C 35.679688 25.917969 35.75 25.84375 35.820312 25.886719 C 35.890625 25.929688 35.902344 25.910156 35.851562 25.824219 C 35.800781 25.746094 35.828125 25.65625 35.917969 25.589844 C 36.070312 25.480469 36.101562 25.421875 36.101562 25.230469 C 36.101562 25.171875 36.152344 25.160156 36.214844 25.195312 C 36.285156 25.238281 36.304688 25.222656 36.265625 25.164062 C 36.171875 25.015625 36.300781 24.734375 36.425781 24.808594 C 36.488281 24.847656 36.5 24.828125 36.457031 24.753906 C 36.414062 24.6875 36.449219 24.558594 36.53125 24.46875 C 36.617188 24.378906 36.734375 24.179688 36.792969 24.027344 C 36.859375 23.859375 36.945312 23.777344 37.015625 23.820312 C 37.082031 23.863281 37.105469 23.847656 37.066406 23.789062 C 36.976562 23.648438 37.609375 22.578125 37.734375 22.65625 C 37.785156 22.6875 37.800781 22.667969 37.765625 22.609375 C 37.679688 22.476562 37.792969 22.175781 37.902344 22.242188 C 37.949219 22.269531 38.019531 22.242188 38.058594 22.179688 C 38.105469 22.105469 38.085938 22.089844 38.015625 22.132812 C 37.839844 22.242188 37.875 22.132812 38.179688 21.648438 C 38.335938 21.40625 38.5 21.242188 38.546875 21.28125 C 38.59375 21.324219 38.601562 21.304688 38.5625 21.238281 C 38.472656 21.085938 38.777344 20.496094 38.902344 20.574219 C 38.957031 20.605469 38.972656 20.5625 38.9375 20.480469 C 38.871094 20.308594 39.234375 19.808594 39.351562 19.914062 C 39.394531 19.953125 39.402344 19.929688 39.363281 19.863281 C 39.324219 19.796875 39.371094 19.597656 39.464844 19.421875 C 39.59375 19.179688 39.640625 18.828125 39.652344 18.019531 C 39.664062 17.425781 39.703125 16.734375 39.746094 16.484375 C 39.792969 16.191406 39.777344 15.953125 39.707031 15.820312 C 39.613281 15.652344 39.621094 15.597656 39.746094 15.550781 C 39.828125 15.519531 39.875 15.453125 39.84375 15.40625 C 39.8125 15.355469 39.738281 15.34375 39.675781 15.382812 C 39.609375 15.421875 39.597656 15.402344 39.644531 15.328125 C 39.6875 15.261719 39.773438 15.226562 39.835938 15.25 C 39.90625 15.277344 39.949219 15.171875 39.945312 14.96875 C 39.945312 14.625 39.859375 14.457031 39.761719 14.609375 M 11.523438 15.367188 C 11.5625 15.410156 11.519531 15.507812 11.421875 15.585938 C 11.328125 15.664062 11.304688 15.699219 11.371094 15.667969 C 11.53125 15.585938 11.726562 15.964844 11.648438 16.207031 C 11.613281 16.316406 11.632812 16.398438 11.695312 16.398438 C 11.832031 16.398438 11.792969 18.675781 11.648438 18.777344 C 11.589844 18.820312 11.613281 18.851562 11.699219 18.855469 C 11.828125 18.855469 11.828125 18.871094 11.710938 18.945312 C 11.5625 19.035156 11.273438 18.976562 11.339844 18.867188 C 11.363281 18.832031 11.316406 18.746094 11.238281 18.679688 C 11.0625 18.519531 11.066406 18.632812 11.246094 18.953125 C 11.320312 19.085938 11.441406 19.199219 11.507812 19.199219 C 11.578125 19.199219 11.636719 19.316406 11.644531 19.464844 C 11.652344 19.613281 11.757812 19.824219 11.878906 19.9375 C 12.003906 20.050781 12.078125 20.183594 12.046875 20.234375 C 12.015625 20.285156 12.039062 20.328125 12.101562 20.328125 C 12.160156 20.328125 12.183594 20.371094 12.148438 20.425781 C 12.117188 20.480469 12.148438 20.546875 12.226562 20.578125 C 12.304688 20.605469 12.367188 20.683594 12.371094 20.75 C 12.375 20.8125 12.613281 21.265625 12.90625 21.75 C 13.488281 22.726562 14.246094 24.007812 14.902344 25.136719 C 15.140625 25.542969 15.398438 25.980469 15.480469 26.109375 L 15.625 26.347656 L 15.820312 26.109375 C 15.929688 25.980469 15.984375 25.9375 15.941406 26.011719 C 15.894531 26.101562 15.910156 26.125 15.980469 26.082031 C 16.042969 26.046875 16.0625 25.945312 16.027344 25.855469 C 15.988281 25.75 16.003906 25.71875 16.082031 25.765625 C 16.152344 25.808594 16.179688 25.785156 16.144531 25.703125 C 16.117188 25.632812 16.175781 25.488281 16.277344 25.378906 C 16.464844 25.179688 16.5 25.113281 16.5 24.9375 C 16.5 24.878906 16.550781 24.863281 16.617188 24.902344 C 16.683594 24.945312 16.703125 24.929688 16.664062 24.863281 C 16.589844 24.746094 16.933594 24.125 17.023438 24.210938 C 17.054688 24.242188 17.074219 24.1875 17.066406 24.089844 C 17.054688 23.988281 17.105469 23.921875 17.183594 23.9375 C 17.253906 23.953125 17.289062 23.921875 17.257812 23.871094 C 17.167969 23.734375 17.304688 23.460938 17.425781 23.535156 C 17.488281 23.570312 17.5 23.550781 17.460938 23.484375 C 17.363281 23.332031 17.582031 22.957031 17.71875 23.039062 C 17.785156 23.078125 17.800781 23.0625 17.761719 22.996094 C 17.683594 22.871094 18.398438 21.589844 18.507812 21.65625 C 18.546875 21.679688 18.570312 21.621094 18.5625 21.527344 C 18.554688 21.433594 18.605469 21.367188 18.671875 21.382812 C 18.742188 21.394531 18.769531 21.34375 18.734375 21.257812 C 18.703125 21.175781 18.734375 21.042969 18.800781 20.964844 C 18.867188 20.882812 18.894531 20.816406 18.859375 20.816406 C 18.820312 20.816406 18.882812 20.722656 18.996094 20.601562 C 19.109375 20.484375 19.199219 20.347656 19.199219 20.300781 C 19.199219 20.164062 19.46875 19.9375 19.542969 20.007812 C 19.582031 20.046875 19.578125 19.992188 19.539062 19.890625 C 19.472656 19.726562 19.457031 19.722656 19.347656 19.871094 C 19.246094 20.003906 19.234375 19.960938 19.269531 19.617188 C 19.289062 19.386719 19.328125 18.546875 19.355469 17.75 C 19.398438 16.351562 19.394531 16.300781 19.199219 16.300781 C 19.089844 16.300781 19.003906 16.332031 19.011719 16.375 C 19.039062 16.550781 18.996094 16.722656 18.933594 16.664062 C 18.898438 16.628906 18.601562 17.050781 18.273438 17.605469 C 17.945312 18.15625 17.441406 19.007812 17.148438 19.492188 C 16.550781 20.496094 16.257812 21 15.964844 21.53125 C 15.855469 21.730469 15.730469 21.898438 15.691406 21.898438 C 15.648438 21.898438 15.417969 21.53125 15.175781 21.085938 C 14.9375 20.640625 14.5625 20.011719 14.347656 19.6875 C 14.132812 19.363281 13.96875 19.066406 13.980469 19.027344 C 13.992188 18.984375 13.953125 18.953125 13.898438 18.953125 C 13.84375 18.953125 13.804688 18.917969 13.8125 18.878906 C 13.84375 18.683594 13.789062 18.554688 13.699219 18.609375 C 13.609375 18.664062 13.558594 18.535156 13.589844 18.339844 C 13.59375 18.296875 13.546875 18.265625 13.484375 18.265625 C 13.417969 18.265625 13.394531 18.238281 13.425781 18.207031 C 13.457031 18.175781 13.394531 18.0625 13.289062 17.957031 C 13.179688 17.851562 13.125 17.71875 13.160156 17.65625 C 13.207031 17.585938 13.183594 17.574219 13.097656 17.628906 C 13 17.6875 12.984375 17.664062 13.03125 17.539062 C 13.070312 17.4375 13.058594 17.394531 13 17.429688 C 12.90625 17.484375 12.855469 17.351562 12.890625 17.152344 C 12.898438 17.109375 12.863281 17.097656 12.816406 17.125 C 12.765625 17.15625 12.507812 16.828125 12.246094 16.402344 C 11.980469 15.972656 11.722656 15.648438 11.664062 15.683594 C 11.605469 15.71875 11.589844 15.679688 11.628906 15.582031 C 11.664062 15.496094 11.636719 15.390625 11.570312 15.355469 C 11.503906 15.316406 11.484375 15.324219 11.523438 15.367188 M 19.25 15.90625 C 19.214844 15.960938 19.222656 16.007812 19.269531 16.007812 C 19.3125 16.007812 19.28125 16.050781 19.199219 16.105469 C 19.070312 16.1875 19.074219 16.199219 19.21875 16.199219 C 19.3125 16.203125 19.414062 16.160156 19.449219 16.105469 C 19.484375 16.050781 19.460938 16.007812 19.398438 16.007812 C 19.339844 16.007812 19.316406 15.960938 19.351562 15.90625 C 19.382812 15.855469 19.390625 15.808594 19.363281 15.808594 C 19.335938 15.808594 19.285156 15.855469 19.25 15.90625 M 22.046875 31.03125 C 22.046875 39.105469 22.058594 42.40625 22.074219 38.371094 C 22.089844 34.332031 22.089844 27.726562 22.074219 23.691406 C 22.058594 19.652344 22.046875 22.957031 22.046875 31.03125 M 44.523438 18.558594 C 44.523438 18.75 44.542969 18.824219 44.570312 18.730469 C 44.59375 18.636719 44.59375 18.480469 44.570312 18.386719 C 44.542969 18.292969 44.523438 18.371094 44.523438 18.558594 M 6.625 18.65625 C 6.625 18.847656 6.644531 18.921875 6.667969 18.828125 C 6.695312 18.734375 6.695312 18.578125 6.667969 18.484375 C 6.644531 18.390625 6.625 18.46875 6.625 18.65625 M 19.457031 19.160156 C 19.496094 19.21875 19.464844 19.304688 19.390625 19.351562 C 19.316406 19.394531 19.28125 19.457031 19.3125 19.488281 C 19.34375 19.515625 19.445312 19.460938 19.539062 19.359375 C 19.691406 19.191406 19.695312 19.167969 19.550781 19.113281 C 19.449219 19.074219 19.414062 19.09375 19.457031 19.160156 M 6.625 23.371094 C 6.625 23.558594 6.644531 23.636719 6.667969 23.542969 C 6.695312 23.449219 6.695312 23.292969 6.667969 23.199219 C 6.644531 23.105469 6.625 23.183594 6.625 23.371094 M 44.523438 23.519531 C 44.527344 23.734375 44.546875 23.8125 44.570312 23.6875 C 44.59375 23.566406 44.59375 23.390625 44.570312 23.296875 C 44.542969 23.203125 44.523438 23.300781 44.523438 23.519531 M 39.773438 29.875 C 39.746094 29.945312 39.730469 30.035156 39.738281 30.078125 C 39.746094 30.125 39.671875 30.203125 39.574219 30.257812 C 39.476562 30.3125 39.417969 30.390625 39.449219 30.4375 C 39.476562 30.480469 39.429688 30.542969 39.347656 30.574219 C 39.265625 30.605469 39.199219 30.695312 39.199219 30.773438 C 39.199219 30.851562 39.160156 30.929688 39.117188 30.949219 C 39.070312 30.964844 38.6875 31.386719 38.265625 31.878906 C 37.84375 32.375 37.261719 32.972656 36.972656 33.207031 C 36.6875 33.441406 36.335938 33.734375 36.199219 33.855469 C 35.78125 34.234375 34.296875 35.199219 33.449219 35.648438 C 33.011719 35.878906 32.5625 36.140625 32.457031 36.226562 C 32.332031 36.328125 32.292969 36.335938 32.34375 36.25 C 32.410156 36.140625 32.382812 36.136719 32.210938 36.226562 C 32.09375 36.289062 32 36.378906 32 36.425781 C 32 36.476562 31.929688 36.585938 31.84375 36.667969 C 31.753906 36.757812 31.734375 36.824219 31.796875 36.824219 C 31.859375 36.824219 31.882812 36.867188 31.851562 36.921875 C 31.816406 36.976562 31.855469 36.992188 31.945312 36.960938 C 32.074219 36.910156 32.09375 37.011719 32.074219 37.644531 C 32.054688 38.265625 32.082031 38.417969 32.238281 38.5625 C 32.34375 38.660156 32.398438 38.6875 32.363281 38.625 C 32.324219 38.558594 32.421875 38.46875 32.601562 38.410156 C 32.777344 38.347656 32.882812 38.34375 32.847656 38.398438 C 32.816406 38.449219 32.859375 38.464844 32.945312 38.433594 C 33.03125 38.398438 33.078125 38.339844 33.050781 38.296875 C 32.984375 38.191406 33.59375 37.988281 33.726562 38.066406 C 33.785156 38.101562 33.800781 38.085938 33.765625 38.027344 C 33.6875 37.902344 33.972656 37.777344 34.125 37.871094 C 34.183594 37.90625 34.203125 37.886719 34.164062 37.832031 C 34.09375 37.71875 34.367188 37.578125 34.5 37.65625 C 34.542969 37.683594 34.605469 37.636719 34.640625 37.550781 C 34.675781 37.457031 34.765625 37.417969 34.855469 37.449219 C 34.945312 37.484375 34.984375 37.46875 34.949219 37.410156 C 34.894531 37.324219 35.027344 37.273438 35.226562 37.304688 C 35.265625 37.308594 35.300781 37.269531 35.300781 37.210938 C 35.300781 37.152344 35.34375 37.132812 35.394531 37.164062 C 35.445312 37.195312 35.535156 37.140625 35.589844 37.046875 C 35.648438 36.949219 35.695312 36.90625 35.695312 36.945312 C 35.699219 36.988281 35.792969 36.929688 35.902344 36.820312 C 36.015625 36.710938 36.15625 36.652344 36.21875 36.6875 C 36.285156 36.726562 36.304688 36.710938 36.265625 36.652344 C 36.226562 36.59375 36.367188 36.445312 36.574219 36.320312 C 36.78125 36.195312 37.136719 35.921875 37.363281 35.71875 C 37.59375 35.511719 37.816406 35.355469 37.863281 35.371094 C 37.910156 35.386719 37.957031 35.363281 37.964844 35.316406 C 38 35.132812 38.550781 34.660156 38.675781 34.707031 C 38.75 34.738281 38.785156 34.71875 38.753906 34.671875 C 38.679688 34.554688 38.988281 34.253906 39.105469 34.324219 C 39.15625 34.355469 39.167969 34.300781 39.132812 34.210938 C 39.082031 34.078125 39.105469 34.054688 39.238281 34.105469 C 39.332031 34.140625 39.386719 34.132812 39.355469 34.085938 C 39.328125 34.039062 39.382812 33.894531 39.476562 33.765625 C 39.890625 33.210938 39.941406 32.992188 39.660156 32.996094 C 39.597656 32.996094 39.605469 33.03125 39.679688 33.078125 C 39.785156 33.144531 39.78125 33.179688 39.667969 33.273438 C 39.550781 33.367188 39.535156 33.339844 39.5625 33.117188 C 39.582031 32.96875 39.625 32.539062 39.65625 32.160156 C 39.714844 31.425781 39.757812 31.152344 39.867188 30.875 C 39.917969 30.742188 39.894531 30.714844 39.777344 30.761719 C 39.664062 30.804688 39.605469 30.746094 39.570312 30.558594 C 39.523438 30.3125 39.527344 30.308594 39.660156 30.484375 C 39.800781 30.675781 39.839844 30.632812 39.804688 30.3125 C 39.792969 30.214844 39.835938 30.074219 39.898438 30 C 39.964844 29.921875 39.972656 29.847656 39.914062 29.8125 C 39.863281 29.78125 39.800781 29.808594 39.773438 29.875 M 11.589844 30.957031 C 11.660156 31.050781 11.695312 31.191406 11.667969 31.269531 C 11.632812 31.355469 11.65625 31.394531 11.730469 31.367188 C 11.820312 31.332031 11.839844 31.492188 11.800781 32.003906 C 11.773438 32.378906 11.714844 32.71875 11.675781 32.757812 C 11.632812 32.796875 11.675781 32.910156 11.765625 33.011719 C 11.855469 33.109375 11.902344 33.222656 11.867188 33.257812 C 11.828125 33.292969 11.800781 33.257812 11.796875 33.183594 C 11.796875 33.066406 11.78125 33.070312 11.699219 33.191406 C 11.578125 33.375 11.570312 33.511719 11.691406 33.441406 C 11.742188 33.410156 11.757812 33.480469 11.726562 33.597656 C 11.6875 33.742188 11.707031 33.789062 11.78125 33.742188 C 11.859375 33.695312 11.875 33.726562 11.835938 33.828125 C 11.796875 33.925781 11.824219 33.972656 11.90625 33.957031 C 11.984375 33.9375 12.039062 34.011719 12.039062 34.125 C 12.039062 34.34375 12.871094 35.175781 13.699219 35.78125 C 14.003906 36.003906 14.273438 36.207031 14.300781 36.238281 C 14.707031 36.683594 18.417969 38.644531 18.671875 38.546875 C 18.859375 38.476562 19.109375 38.59375 19.035156 38.714844 C 18.992188 38.777344 19.019531 38.789062 19.09375 38.742188 C 19.164062 38.699219 19.253906 38.714844 19.292969 38.773438 C 19.339844 38.855469 19.417969 38.84375 19.554688 38.738281 C 19.679688 38.644531 19.695312 38.597656 19.605469 38.613281 C 19.496094 38.632812 19.46875 38.539062 19.492188 38.199219 C 19.507812 37.957031 19.539062 37.722656 19.566406 37.683594 C 19.589844 37.644531 19.539062 37.636719 19.457031 37.667969 C 19.371094 37.703125 19.300781 37.679688 19.300781 37.621094 C 19.300781 37.558594 19.34375 37.511719 19.394531 37.511719 C 19.449219 37.511719 19.480469 37.3125 19.46875 37.070312 C 19.460938 36.828125 19.417969 36.628906 19.375 36.628906 C 19.332031 36.628906 19.300781 36.675781 19.300781 36.730469 C 19.300781 36.789062 19.25 36.804688 19.1875 36.765625 C 19.113281 36.722656 19.15625 36.652344 19.3125 36.5625 L 19.550781 36.429688 L 19.273438 36.472656 C 19.078125 36.503906 19 36.472656 19 36.371094 C 19 36.289062 18.960938 36.246094 18.910156 36.277344 C 18.761719 36.367188 16.445312 35.011719 15.378906 34.203125 C 14.570312 33.59375 13.042969 32.191406 13.078125 32.085938 C 13.09375 32.035156 13.0625 32.023438 13.015625 32.054688 C 12.964844 32.082031 12.859375 32.035156 12.785156 31.941406 C 12.671875 31.804688 12.671875 31.789062 12.789062 31.859375 C 12.886719 31.917969 12.90625 31.90625 12.859375 31.832031 C 12.820312 31.769531 12.71875 31.71875 12.632812 31.71875 C 12.539062 31.71875 12.5 31.660156 12.535156 31.574219 C 12.566406 31.492188 12.542969 31.398438 12.480469 31.363281 C 12.40625 31.316406 12.398438 31.34375 12.449219 31.433594 C 12.492188 31.507812 12.429688 31.472656 12.3125 31.347656 C 12.191406 31.226562 12.042969 31.128906 11.980469 31.128906 C 11.917969 31.128906 11.773438 31.050781 11.660156 30.957031 C 11.464844 30.796875 11.460938 30.796875 11.589844 30.957031 M 31.96875 36.660156 C 31.941406 36.730469 31.980469 36.789062 32.054688 36.789062 C 32.128906 36.789062 32.214844 36.730469 32.242188 36.660156 C 32.269531 36.589844 32.230469 36.527344 32.15625 36.527344 C 32.082031 36.527344 32 36.589844 31.96875 36.660156 M 31.152344 37.308594 C 31.0625 37.582031 31.113281 38.882812 31.214844 38.945312 C 31.261719 38.972656 31.300781 38.574219 31.300781 38.058594 C 31.300781 37.117188 31.265625 36.953125 31.152344 37.308594 M 19.933594 37.902344 C 19.933594 38.253906 19.949219 38.398438 19.972656 38.222656 C 19.996094 38.046875 19.996094 37.761719 19.972656 37.585938 C 19.949219 37.410156 19.933594 37.554688 19.933594 37.902344 M 19.28125 38.253906 C 19.257812 38.445312 19.265625 38.621094 19.300781 38.640625 C 19.335938 38.660156 19.371094 38.503906 19.386719 38.289062 C 19.414062 37.808594 19.335938 37.78125 19.28125 38.253906 "/>
<path style=" stroke:none;fill-rule:evenodd;fill:rgb(8.235294%,14.117647%,47.058824%);fill-opacity:1;" d="M 19.464844 3.289062 C 19.433594 3.371094 19.308594 3.425781 19.1875 3.410156 C 19.066406 3.398438 18.953125 3.453125 18.929688 3.535156 C 18.890625 3.664062 18.898438 3.664062 18.992188 3.535156 C 19.105469 3.375 19.113281 3.382812 19.148438 3.710938 C 19.171875 3.914062 19.160156 3.921875 19.003906 3.785156 C 18.910156 3.699219 18.796875 3.667969 18.75 3.707031 C 18.707031 3.746094 18.699219 3.726562 18.738281 3.65625 C 18.785156 3.582031 18.75 3.535156 18.648438 3.535156 C 18.5625 3.535156 18.507812 3.566406 18.535156 3.609375 C 18.558594 3.648438 18.476562 3.6875 18.351562 3.695312 C 18.144531 3.707031 16.824219 4.320312 15.710938 4.917969 C 14.796875 5.414062 13.003906 6.839844 11.824219 8.011719 C 11.152344 8.683594 10.601562 9.289062 10.601562 9.359375 C 10.601562 9.429688 10.761719 9.75 10.964844 10.070312 C 11.164062 10.390625 11.417969 10.820312 11.53125 11.023438 C 11.644531 11.226562 11.789062 11.390625 11.851562 11.390625 C 11.914062 11.390625 12.242188 11.042969 12.585938 10.617188 C 13.40625 9.589844 14.78125 8.320312 16.003906 7.449219 C 16.222656 7.292969 16.421875 7.167969 16.453125 7.167969 C 16.480469 7.167969 16.898438 6.933594 17.382812 6.644531 C 17.863281 6.355469 18.839844 5.890625 19.554688 5.609375 C 20.707031 5.15625 20.8125 5.070312 20.007812 5.246094 C 19.875 5.273438 19.734375 5.347656 19.695312 5.410156 C 19.65625 5.472656 19.5625 5.5 19.488281 5.476562 C 19.410156 5.449219 19.261719 5.496094 19.148438 5.585938 C 18.949219 5.742188 18.949219 5.742188 19.144531 5.515625 C 19.3125 5.324219 19.320312 5.277344 19.195312 5.199219 C 19.0625 5.117188 19.132812 5.0625 19.328125 5.097656 C 19.371094 5.101562 19.359375 5.019531 19.300781 4.914062 C 19.214844 4.753906 19.222656 4.726562 19.347656 4.777344 C 19.476562 4.824219 19.488281 4.789062 19.414062 4.601562 C 19.34375 4.414062 19.332031 3.902344 19.390625 3.511719 C 19.394531 3.476562 19.476562 3.472656 19.566406 3.507812 C 19.691406 3.554688 19.71875 3.527344 19.671875 3.410156 C 19.640625 3.324219 19.664062 3.230469 19.730469 3.207031 C 19.800781 3.179688 19.78125 3.15625 19.6875 3.148438 C 19.59375 3.144531 19.496094 3.207031 19.464844 3.289062 M 31.925781 3.40625 C 32.050781 3.4375 32.089844 3.523438 32.058594 3.6875 C 32.03125 3.820312 32.058594 3.914062 32.121094 3.902344 C 32.292969 3.863281 32.3125 4.910156 32.144531 4.976562 C 32.0625 5.003906 32 5.09375 32 5.171875 C 32 5.25 32.046875 5.285156 32.105469 5.25 C 32.164062 5.214844 32.238281 5.277344 32.269531 5.390625 C 32.296875 5.503906 32.363281 5.570312 32.410156 5.542969 C 32.457031 5.511719 32.46875 5.558594 32.4375 5.644531 C 32.386719 5.769531 32.347656 5.777344 32.222656 5.671875 C 32.136719 5.605469 32.054688 5.558594 32.035156 5.570312 C 32 5.59375 31.960938 5.582031 31.410156 5.410156 C 31.222656 5.351562 31.050781 5.320312 31.027344 5.339844 C 31.003906 5.363281 31.160156 5.433594 31.367188 5.5 C 31.773438 5.625 32.515625 5.929688 32.851562 6.113281 C 32.960938 6.171875 33.273438 6.335938 33.550781 6.480469 C 35.320312 7.398438 37.570312 9.238281 38.617188 10.617188 C 38.921875 11.023438 39.195312 11.289062 39.285156 11.273438 C 39.449219 11.242188 40.480469 9.664062 40.492188 9.421875 C 40.5 9.253906 39.546875 8.140625 38.820312 7.472656 C 37.753906 6.492188 36.175781 5.351562 34.992188 4.707031 C 33.160156 3.710938 32 3.304688 32.421875 3.804688 C 32.535156 3.941406 32.527344 3.945312 32.332031 3.824219 C 32.183594 3.734375 32.140625 3.652344 32.203125 3.578125 C 32.328125 3.433594 32.21875 3.335938 31.957031 3.351562 C 31.789062 3.359375 31.78125 3.371094 31.925781 3.40625 M 26.867188 7.628906 C 26.828125 7.664062 26.800781 15.824219 26.800781 25.761719 L 26.800781 43.828125 L 27.324219 44.332031 C 27.613281 44.609375 28.023438 45.046875 28.238281 45.304688 C 28.535156 45.664062 28.679688 45.761719 28.863281 45.742188 L 29.105469 45.710938 L 29.105469 31.078125 C 29.105469 23.027344 29.136719 16.320312 29.179688 16.167969 C 29.253906 15.898438 29.257812 15.902344 29.539062 16.417969 C 30.238281 17.703125 31.230469 19.238281 31.328125 19.179688 C 31.386719 19.144531 31.402344 19.164062 31.363281 19.226562 C 31.265625 19.382812 31.582031 19.957031 31.71875 19.871094 C 31.785156 19.832031 31.804688 19.851562 31.761719 19.914062 C 31.671875 20.058594 32.078125 20.84375 32.203125 20.765625 C 32.257812 20.734375 32.300781 20.6875 32.300781 20.660156 C 32.300781 20.632812 32.261719 20.632812 32.210938 20.664062 C 32.109375 20.726562 31.972656 20.371094 31.988281 20.082031 C 31.992188 19.972656 32.035156 19.554688 32.082031 19.148438 C 32.128906 18.742188 32.136719 18.324219 32.097656 18.214844 C 32.019531 17.992188 32.035156 17.710938 32.148438 17.453125 C 32.1875 17.359375 32.183594 17.226562 32.132812 17.160156 C 32.082031 17.089844 32.035156 16.90625 32.023438 16.742188 C 32.003906 16.476562 32.011719 16.46875 32.097656 16.664062 C 32.148438 16.78125 32.261719 16.960938 32.351562 17.054688 C 32.4375 17.152344 32.601562 17.34375 32.710938 17.480469 C 32.824219 17.613281 32.746094 17.414062 32.542969 17.035156 C 32.339844 16.660156 32.140625 16.328125 32.105469 16.300781 C 32.066406 16.273438 32.003906 16.171875 31.96875 16.074219 C 31.929688 15.976562 31.855469 15.921875 31.800781 15.957031 C 31.746094 15.992188 31.726562 15.953125 31.761719 15.863281 C 31.796875 15.777344 31.777344 15.652344 31.71875 15.585938 C 31.664062 15.519531 31.472656 15.199219 31.292969 14.875 C 31.117188 14.550781 30.765625 13.957031 30.519531 13.550781 C 30.269531 13.144531 29.933594 12.570312 29.769531 12.273438 C 29.605469 11.976562 29.195312 11.28125 28.859375 10.722656 C 27.902344 9.136719 27.894531 9.121094 27.527344 8.421875 C 27.167969 7.742188 26.980469 7.515625 26.867188 7.628906 M 23.691406 8.371094 C 23.460938 8.761719 23.15625 9.28125 23.011719 9.523438 C 22.65625 10.117188 22.503906 10.382812 22.257812 10.851562 C 22.144531 11.066406 22.027344 11.265625 22 11.292969 C 21.949219 11.34375 21.871094 11.476562 21.421875 12.265625 C 21.28125 12.515625 21.0625 12.882812 20.933594 13.082031 C 20.804688 13.285156 20.699219 13.46875 20.699219 13.492188 C 20.699219 13.515625 20.515625 13.847656 20.292969 14.226562 C 20.066406 14.613281 19.917969 14.972656 19.957031 15.035156 C 20 15.105469 19.988281 15.125 19.925781 15.089844 C 19.867188 15.054688 19.75 15.132812 19.664062 15.261719 C 19.515625 15.484375 19.519531 15.503906 19.675781 15.546875 C 19.820312 15.582031 19.816406 15.59375 19.648438 15.601562 C 19.539062 15.609375 19.398438 15.722656 19.339844 15.851562 C 19.25 16.042969 19.253906 16.078125 19.363281 16.035156 C 19.4375 16.007812 19.5 16.011719 19.5 16.046875 C 19.5 16.082031 19.398438 16.152344 19.273438 16.199219 C 19.101562 16.265625 19.089844 16.289062 19.226562 16.292969 C 19.386719 16.300781 19.398438 16.417969 19.355469 17.75 C 19.328125 18.546875 19.289062 19.386719 19.269531 19.617188 C 19.230469 19.980469 19.242188 20.011719 19.359375 19.859375 C 19.433594 19.765625 19.496094 19.742188 19.496094 19.804688 C 19.5 19.867188 19.433594 19.984375 19.351562 20.066406 C 19.265625 20.148438 19.199219 20.253906 19.199219 20.300781 C 19.199219 20.347656 19.109375 20.484375 18.996094 20.601562 C 18.882812 20.722656 18.816406 20.816406 18.84375 20.816406 C 18.902344 20.816406 18.925781 20.78125 17.5 23.222656 C 16.9375 24.195312 16.453125 25.023438 16.429688 25.066406 C 16.40625 25.105469 16.410156 25.136719 16.4375 25.136719 C 16.484375 25.136719 16.871094 24.523438 17.398438 23.617188 C 17.976562 22.621094 18.714844 21.382812 18.921875 21.054688 C 19.582031 20.023438 19.847656 19.441406 19.585938 19.597656 C 19.515625 19.640625 19.496094 19.625 19.539062 19.558594 C 19.574219 19.5 19.671875 19.476562 19.753906 19.507812 C 19.855469 19.542969 19.898438 19.496094 19.898438 19.355469 C 19.898438 19.242188 19.941406 19.148438 19.988281 19.148438 C 20.039062 19.148438 20.148438 19.003906 20.238281 18.828125 C 20.328125 18.652344 20.535156 18.289062 20.699219 18.019531 C 20.863281 17.75 21.1875 17.1875 21.421875 16.765625 C 21.65625 16.347656 21.90625 16.007812 21.976562 16.007812 C 22.074219 16.007812 22.105469 19.085938 22.125 30.90625 C 22.148438 45.65625 22.152344 45.808594 22.347656 45.773438 C 22.566406 45.738281 22.71875 45.574219 23.335938 44.726562 C 23.496094 44.511719 23.773438 44.203125 23.960938 44.042969 L 24.296875 43.746094 L 24.324219 25.703125 C 24.34375 11.671875 24.324219 7.660156 24.230469 7.660156 C 24.164062 7.660156 23.921875 7.980469 23.691406 8.371094 M 9.109375 11.546875 C 8.410156 12.421875 7.148438 15.621094 6.847656 17.28125 C 6.546875 18.960938 6.464844 21.992188 6.675781 23.714844 C 6.984375 26.261719 8.101562 29.15625 9.621094 31.371094 C 10.359375 32.441406 11.152344 33.398438 11.238281 33.316406 C 11.273438 33.28125 11.300781 33.320312 11.300781 33.394531 C 11.304688 33.527344 11.921875 34.269531 12.03125 34.269531 C 12.058594 34.269531 12.070312 34.191406 12.054688 34.097656 C 12.035156 34.003906 11.96875 33.941406 11.898438 33.957031 C 11.824219 33.972656 11.800781 33.925781 11.835938 33.828125 C 11.875 33.726562 11.859375 33.695312 11.78125 33.742188 C 11.707031 33.789062 11.6875 33.742188 11.726562 33.597656 C 11.757812 33.480469 11.742188 33.410156 11.691406 33.441406 C 11.570312 33.511719 11.578125 33.375 11.699219 33.191406 C 11.78125 33.070312 11.796875 33.066406 11.796875 33.183594 C 11.800781 33.257812 11.828125 33.292969 11.867188 33.257812 C 11.902344 33.222656 11.855469 33.109375 11.765625 33.011719 C 11.675781 32.910156 11.632812 32.796875 11.675781 32.757812 C 11.714844 32.71875 11.773438 32.378906 11.800781 32.003906 C 11.839844 31.492188 11.820312 31.332031 11.730469 31.367188 C 11.65625 31.394531 11.632812 31.355469 11.667969 31.269531 C 11.695312 31.191406 11.660156 31.050781 11.589844 30.957031 C 11.460938 30.796875 11.464844 30.792969 11.652344 30.945312 C 11.761719 31.03125 11.945312 31.132812 12.058594 31.167969 C 12.175781 31.203125 12.328125 31.339844 12.402344 31.472656 C 12.472656 31.609375 12.570312 31.71875 12.613281 31.71875 C 12.65625 31.71875 12.410156 31.332031 12.066406 30.859375 C 11.722656 30.386719 11.335938 29.820312 11.203125 29.605469 C 10.746094 28.847656 10.101562 27.617188 10.101562 27.503906 C 10.101562 27.4375 10.011719 27.203125 9.898438 26.980469 C 9.789062 26.757812 9.699219 26.503906 9.699219 26.414062 C 9.699219 26.328125 9.664062 26.214844 9.617188 26.164062 C 9.519531 26.054688 9.351562 25.488281 9.195312 24.746094 C 9.132812 24.449219 9.03125 24.03125 8.96875 23.816406 C 8.839844 23.378906 8.808594 19.480469 8.929688 18.753906 C 9.054688 17.984375 9.355469 16.625 9.453125 16.375 C 9.554688 16.117188 9.640625 16.160156 9.90625 16.621094 C 10.039062 16.847656 10.195312 17.113281 10.25 17.203125 C 10.304688 17.292969 10.503906 17.625 10.6875 17.9375 C 10.875 18.253906 11.113281 18.582031 11.210938 18.667969 C 11.3125 18.753906 11.367188 18.851562 11.332031 18.886719 C 11.296875 18.921875 11.320312 18.953125 11.382812 18.953125 C 11.449219 18.953125 11.496094 18.984375 11.488281 19.027344 C 11.453125 19.25 11.511719 19.445312 11.601562 19.394531 C 11.65625 19.359375 11.679688 19.292969 11.652344 19.25 C 11.621094 19.203125 11.632812 19.144531 11.675781 19.125 C 11.714844 19.101562 11.683594 19.097656 11.601562 19.117188 C 11.5 19.136719 11.515625 19.097656 11.644531 19 C 11.785156 18.894531 11.796875 18.851562 11.695312 18.851562 C 11.609375 18.851562 11.589844 18.820312 11.648438 18.777344 C 11.792969 18.675781 11.832031 16.398438 11.695312 16.398438 C 11.632812 16.398438 11.613281 16.316406 11.648438 16.207031 C 11.726562 15.964844 11.53125 15.585938 11.371094 15.667969 C 11.304688 15.699219 11.328125 15.664062 11.421875 15.585938 C 11.519531 15.507812 11.5625 15.410156 11.523438 15.367188 C 11.484375 15.324219 11.503906 15.316406 11.570312 15.355469 C 11.636719 15.390625 11.664062 15.496094 11.628906 15.582031 C 11.59375 15.675781 11.609375 15.71875 11.660156 15.683594 C 11.714844 15.652344 11.890625 15.832031 12.050781 16.085938 C 12.796875 17.265625 13.332031 18.066406 13.371094 18.066406 C 13.414062 18.066406 13.390625 18.027344 13.050781 17.480469 C 12.929688 17.289062 12.644531 16.785156 12.410156 16.359375 C 12.171875 15.929688 11.863281 15.402344 11.71875 15.179688 C 11.394531 14.683594 9.925781 12.144531 9.714844 11.714844 C 9.511719 11.292969 9.347656 11.25 9.109375 11.546875 M 41.5 11.683594 C 41.21875 12.230469 40.894531 12.792969 40.800781 12.914062 C 40.558594 13.214844 40.007812 14.371094 40.066406 14.457031 C 40.101562 14.515625 40.085938 14.535156 40.027344 14.5 C 39.96875 14.464844 39.894531 14.503906 39.863281 14.585938 C 39.828125 14.671875 39.835938 14.71875 39.878906 14.691406 C 39.921875 14.667969 39.953125 14.792969 39.953125 14.96875 C 39.949219 15.171875 39.90625 15.277344 39.835938 15.25 C 39.773438 15.226562 39.6875 15.261719 39.644531 15.328125 C 39.597656 15.402344 39.609375 15.421875 39.675781 15.382812 C 39.738281 15.34375 39.8125 15.355469 39.84375 15.40625 C 39.875 15.453125 39.828125 15.519531 39.746094 15.550781 C 39.621094 15.597656 39.613281 15.652344 39.707031 15.820312 C 39.777344 15.953125 39.792969 16.191406 39.746094 16.484375 C 39.703125 16.734375 39.664062 17.425781 39.652344 18.019531 C 39.636719 19.109375 39.546875 19.410156 39 20.226562 C 38.945312 20.308594 38.46875 21.128906 37.9375 22.046875 C 37.410156 22.964844 36.871094 23.890625 36.742188 24.105469 C 36.3125 24.839844 35.976562 25.480469 36.082031 25.382812 C 36.136719 25.328125 36.265625 25.144531 36.367188 24.972656 C 36.46875 24.800781 36.84375 24.160156 37.199219 23.550781 C 37.558594 22.9375 37.894531 22.363281 37.949219 22.273438 C 38.003906 22.183594 38.25 21.761719 38.488281 21.339844 C 38.730469 20.917969 39.1875 20.152344 39.5 19.640625 C 39.816406 19.125 40.265625 18.351562 40.503906 17.921875 C 41.515625 16.078125 41.625 15.964844 41.792969 16.566406 C 42.203125 18.003906 42.34375 19.125 42.347656 21.015625 C 42.351562 23.667969 42.023438 25.28125 41.003906 27.640625 C 40.957031 27.75 40.769531 28.148438 40.585938 28.527344 C 40.402344 28.902344 40.257812 29.269531 40.265625 29.335938 C 40.273438 29.402344 40.242188 29.433594 40.199219 29.410156 C 40.125 29.363281 39.980469 29.589844 39.945312 29.800781 C 39.9375 29.855469 39.898438 29.976562 39.855469 30.074219 C 39.8125 30.167969 39.804688 30.304688 39.832031 30.382812 C 39.914062 30.589844 39.785156 30.65625 39.648438 30.472656 C 39.554688 30.347656 39.515625 30.339844 39.449219 30.441406 C 39.398438 30.527344 39.40625 30.546875 39.484375 30.5 C 39.558594 30.457031 39.601562 30.503906 39.601562 30.628906 C 39.601562 30.773438 39.644531 30.8125 39.765625 30.765625 C 39.898438 30.714844 39.917969 30.742188 39.867188 30.875 C 39.757812 31.152344 39.714844 31.425781 39.65625 32.160156 C 39.625 32.539062 39.582031 32.96875 39.5625 33.117188 C 39.535156 33.339844 39.550781 33.367188 39.667969 33.273438 C 39.78125 33.179688 39.785156 33.144531 39.679688 33.078125 C 39.605469 33.03125 39.597656 32.996094 39.660156 32.996094 C 39.859375 32.992188 39.878906 33.101562 39.734375 33.386719 C 39.460938 33.925781 37.628906 35.605469 36.425781 36.425781 C 36.082031 36.660156 35.800781 36.871094 35.800781 36.894531 C 35.800781 37 37.191406 36.035156 37.941406 35.40625 C 38.988281 34.523438 39.402344 34.089844 40.972656 32.222656 C 41.265625 31.875 41.894531 30.925781 42.378906 30.097656 C 42.621094 29.6875 43.007812 28.871094 43.40625 27.9375 C 43.566406 27.566406 44.027344 26.171875 44.121094 25.777344 C 44.429688 24.476562 44.691406 22.296875 44.691406 21.015625 C 44.695312 20.144531 44.472656 17.945312 44.308594 17.183594 C 44.066406 16.078125 43.847656 15.332031 43.601562 14.777344 C 43.554688 14.671875 43.390625 14.25 43.242188 13.847656 C 42.855469 12.820312 42.058594 11.347656 41.867188 11.3125 C 41.769531 11.292969 41.632812 11.425781 41.5 11.683594 M 33.203125 18.3125 C 33.203125 18.367188 33.296875 18.523438 33.410156 18.65625 C 33.542969 18.820312 33.578125 18.835938 33.511719 18.707031 C 33.339844 18.386719 33.203125 18.207031 33.203125 18.3125 M 19.457031 19.160156 C 19.496094 19.21875 19.464844 19.304688 19.390625 19.351562 C 19.316406 19.394531 19.28125 19.457031 19.3125 19.488281 C 19.34375 19.515625 19.445312 19.460938 19.539062 19.359375 C 19.691406 19.191406 19.695312 19.167969 19.550781 19.113281 C 19.449219 19.074219 19.414062 19.09375 19.457031 19.160156 M 16.242188 25.414062 C 16.183594 25.503906 16.035156 25.746094 15.910156 25.949219 C 15.785156 26.152344 15.707031 26.316406 15.734375 26.316406 C 15.800781 26.316406 16.417969 25.320312 16.378906 25.28125 C 16.359375 25.261719 16.296875 25.320312 16.242188 25.414062 M 35.757812 25.8125 C 35.53125 26.242188 35.5625 26.328125 35.804688 25.9375 C 35.917969 25.753906 35.988281 25.585938 35.960938 25.558594 C 35.9375 25.535156 35.84375 25.648438 35.757812 25.8125 M 12.699219 31.847656 C 12.699219 31.863281 12.835938 32.003906 13 32.160156 C 13.363281 32.5 13.40625 32.417969 13.046875 32.066406 C 12.8125 31.835938 12.699219 31.765625 12.699219 31.847656 M 19 36.429688 C 19 36.484375 19.035156 36.523438 19.074219 36.515625 C 19.265625 36.488281 19.335938 36.539062 19.214844 36.617188 C 19.121094 36.675781 19.113281 36.722656 19.1875 36.769531 C 19.25 36.804688 19.300781 36.789062 19.300781 36.730469 C 19.300781 36.675781 19.332031 36.628906 19.375 36.628906 C 19.417969 36.628906 19.460938 36.828125 19.46875 37.070312 C 19.480469 37.3125 19.449219 37.511719 19.394531 37.511719 C 19.34375 37.511719 19.300781 37.558594 19.300781 37.621094 C 19.300781 37.679688 19.355469 37.707031 19.425781 37.679688 C 19.519531 37.644531 19.542969 37.742188 19.515625 38.039062 C 19.496094 38.261719 19.449219 38.476562 19.410156 38.515625 C 19.371094 38.558594 19.359375 38.425781 19.382812 38.222656 C 19.40625 38.019531 19.398438 37.878906 19.367188 37.90625 C 19.335938 37.9375 19.296875 38.125 19.285156 38.328125 C 19.265625 38.582031 19.21875 38.679688 19.128906 38.644531 C 18.769531 38.5 18.679688 38.496094 18.925781 38.636719 C 19.078125 38.726562 19.261719 38.761719 19.328125 38.722656 C 19.394531 38.679688 19.515625 38.636719 19.601562 38.625 C 19.714844 38.609375 19.707031 38.636719 19.570312 38.734375 C 19.40625 38.855469 19.410156 38.867188 19.652344 38.925781 C 19.792969 38.960938 19.953125 38.964844 20.003906 38.933594 C 20.058594 38.898438 20.101562 38.40625 20.101562 37.835938 C 20.101562 36.714844 20.023438 36.539062 19.523438 36.53125 C 19.402344 36.53125 19.300781 36.484375 19.300781 36.429688 C 19.300781 36.375 19.234375 36.332031 19.148438 36.332031 C 19.066406 36.332031 19 36.375 19 36.429688 M 31.789062 36.40625 C 31.78125 36.445312 31.78125 36.511719 31.785156 36.550781 C 31.792969 36.589844 31.730469 36.59375 31.644531 36.5625 C 31.425781 36.480469 31.101562 36.808594 31.101562 37.109375 C 31.101562 37.308594 31.125 37.332031 31.199219 37.214844 C 31.265625 37.117188 31.296875 37.371094 31.296875 38.027344 C 31.300781 38.632812 31.339844 38.984375 31.40625 38.984375 C 31.464844 38.984375 31.480469 38.933594 31.441406 38.871094 C 31.394531 38.796875 31.414062 38.785156 31.488281 38.832031 C 31.609375 38.902344 32.65625 38.550781 32.851562 38.371094 C 32.90625 38.320312 32.78125 38.347656 32.578125 38.429688 C 32.097656 38.625 32.046875 38.546875 32.074219 37.625 C 32.09375 37.007812 32.074219 36.910156 31.945312 36.960938 C 31.855469 36.992188 31.816406 36.976562 31.851562 36.921875 C 31.882812 36.867188 31.859375 36.824219 31.796875 36.824219 C 31.734375 36.824219 31.753906 36.757812 31.84375 36.667969 C 31.929688 36.585938 32 36.472656 32 36.425781 C 32 36.316406 31.804688 36.300781 31.789062 36.40625 M 31.96875 36.660156 C 31.941406 36.730469 31.980469 36.789062 32.054688 36.789062 C 32.128906 36.789062 32.214844 36.730469 32.242188 36.660156 C 32.269531 36.589844 32.230469 36.527344 32.15625 36.527344 C 32.082031 36.527344 32 36.589844 31.96875 36.660156 M 34.875 37.371094 C 34.722656 37.453125 34.601562 37.539062 34.601562 37.5625 C 34.601562 37.65625 34.757812 37.597656 35 37.414062 C 35.296875 37.183594 35.253906 37.167969 34.875 37.371094 M 19.933594 37.902344 C 19.933594 38.253906 19.949219 38.398438 19.972656 38.222656 C 19.996094 38.046875 19.996094 37.761719 19.972656 37.585938 C 19.949219 37.410156 19.933594 37.554688 19.933594 37.902344 M 33.671875 37.941406 C 33.300781 38.117188 33.019531 38.285156 33.050781 38.316406 C 33.105469 38.367188 34.5 37.726562 34.5 37.648438 C 34.5 37.574219 34.347656 37.628906 33.671875 37.941406 "/>
</g>
</svg>
